<svg xmlns="http://www.w3.org/2000/svg" width="24" height="24" viewBox="0 0 24 24">
    <path fill="#212121" fill-rule="evenodd" d="M4.995 12C7.73 12 10 14.27 10 17c0 2.735-2.265 5-5 5-2.73 0-5-2.265-5-5 0-2.73 2.265-5 4.995-5zM5 13.5a.5.5 0 0 0-.492.41L4.5 14v.5h-.45l-.091.002c-.817.044-1.459.668-1.459 1.492 0 .807.617 1.433 1.409 1.5l.141.006h.45v1h-1l-.059.003a.5.5 0 0 0-.031.989l.09.008h1v.5l.003.058a.5.5 0 0 0 .989.032L5.5 20v-.5h.55l.09-.002c.806-.044 1.36-.67 1.36-1.498 0-.809-.528-1.424-1.302-1.493L6.05 16.5H5.5v-1h1l.058-.003a.5.5 0 0 0 .032-.989L6.5 14.5h-1V14l-.003-.058A.5.5 0 0 0 5 13.5zM21.382 15a1 1 0 0 1 .894.553l1.362 2.723a.5.5 0 0 1-.447.724H11.186c.204-.63.314-1.302.314-2s-.11-1.37-.313-2h10.195zM6.05 17.5l.06.003c.248.023.39.197.39.497 0 .287-.13.459-.36.493l-.09.007H5.5v-1h.55zm-1.55-2v1h-.45l-.063-.003c-.286-.026-.487-.234-.487-.503 0-.253.179-.447.446-.486l.104-.008h.45zM19.436 2c.892 0 1.215.093 1.54.267.327.174.583.43.757.756.174.326.267.65.267 1.54v7.655c0 .446-.046.607-.134.77a.909.909 0 0 1-.378.378c-.163.088-.324.134-.77.134h-10.24A6.495 6.495 0 0 0 4 10.576V4.564c0-.892.093-1.215.267-1.54.174-.327.43-.583.756-.757.326-.174.65-.267 1.54-.267h12.873zM14.25 3.5h-2.5a.75.75 0 0 0-.102 1.493L11.75 5h2.5a.75.75 0 1 0 0-1.5z"/>
</svg>
