<svg xmlns="http://www.w3.org/2000/svg" width="24" height="24" viewBox="0 0 24 24">
    <path fill="#212121" fill-rule="evenodd" d="M4.995 12C7.73 12 10 14.27 10 17c0 2.735-2.265 5-5 5-2.73 0-5-2.265-5-5 0-2.73 2.265-5 4.995-5zM5 13.5a.5.5 0 0 0-.492.41L4.5 14v.5h-.45l-.091.002c-.817.044-1.459.668-1.459 1.492 0 .807.617 1.433 1.409 1.5l.141.006h.45v1h-1l-.059.003a.5.5 0 0 0-.031.989l.09.008h1v.5l.003.058a.5.5 0 0 0 .989.032L5.5 20v-.5h.55l.09-.002c.806-.044 1.36-.67 1.36-1.498 0-.809-.528-1.424-1.302-1.493L6.05 16.5H5.5v-1h1l.058-.003a.5.5 0 0 0 .032-.989L6.5 14.5h-1V14l-.003-.058A.5.5 0 0 0 5 13.5zM21 2a1 1 0 0 1 1 1v12.5a1 1 0 0 1-1 1V18a1 1 0 0 1 0 2H11c-.077 0-.153-.003-.228-.009a6.456 6.456 0 0 0 .651-1.99L19 18v-1.5h-7.519a6.502 6.502 0 0 0-3.48-5.267L8 5a3 3 0 0 1 3-3h10zM6.05 17.5l.06.003c.248.023.39.197.39.497 0 .287-.13.459-.36.493l-.09.007H5.5v-1h.55zm-1.55-2v1h-.45l-.063-.003c-.286-.026-.487-.234-.487-.503 0-.253.179-.447.446-.486l.104-.008h.45zM19.25 10h-7.5a.75.75 0 0 0-.102 1.493l.102.007h7.5a.75.75 0 1 0 0-1.5zm0-3h-7.5a.75.75 0 0 0-.102 1.493l.102.007h7.5a.75.75 0 1 0 0-1.5zm0-3h-7.5a.75.75 0 0 0-.102 1.493l.102.007h7.5a.75.75 0 1 0 0-1.5z"/>
</svg>
