<svg xmlns="http://www.w3.org/2000/svg" width="24" height="24" viewBox="0 0 24 24">
    <path fill="#ffffff" fill-rule="evenodd" d="M19.436 3c.964 0 1.477.1 2.012.385.5.268.9.666 1.167 1.167.262.49.367.962.383 1.78l.002.232v10.872c0 .964-.1 1.477-.385 2.012-.268.5-.666.9-1.167 1.167-.49.262-.962.367-1.78.383l-.232.002H4.564c-.964 0-1.477-.1-2.012-.385a2.817 2.817 0 0 1-1.167-1.167c-.262-.49-.367-.962-.383-1.78L1 17.436V6.564c0-.964.1-1.477.385-2.012.268-.5.666-.9 1.167-1.167.49-.262.962-.367 1.78-.383L4.564 3h14.872zm.17 2.001L12 5v14l7.606-.001.305-.01c.262-.015.405-.049.532-.107l.062-.03a.818.818 0 0 0 .346-.347c.1-.187.141-.37.148-.9V6.396l-.01-.306c-.018-.305-.06-.449-.138-.594a.818.818 0 0 0-.346-.346c-.187-.1-.37-.141-.9-.148zM17.25 15a.75.75 0 1 1 0 1.5h-3.5a.75.75 0 1 1 0-1.5h3.5zm2-2.5a.75.75 0 1 1 0 1.5h-5.5a.75.75 0 1 1 0-1.5h5.5zm0-2.5a.75.75 0 1 1 0 1.5h-5.5a.75.75 0 1 1 0-1.5h5.5zm0-2.5a.75.75 0 1 1 0 1.5h-5.5a.75.75 0 1 1 0-1.5h5.5z"/>
</svg>
