<svg xmlns="http://www.w3.org/2000/svg" width="24" height="24" viewBox="0 0 24 24">
    <path fill="#212121" fill-rule="evenodd" d="M19 2a1 1 0 0 1 1 1v14a1 1 0 0 1-1 1v2a1 1 0 0 1 0 2H7a3 3 0 0 1-3-3V5a3 3 0 0 1 3-3h12zm-2 16H7a1 1 0 0 0-.117 1.993L7 20h10v-2zm.25-7.5h-8.5a.75.75 0 0 0-.102 1.493L8.75 12h8.5a.75.75 0 0 0 .102-1.493l-.102-.007zm0-3h-8.5a.75.75 0 0 0-.102 1.493L8.75 9h8.5a.75.75 0 0 0 .102-1.493L17.25 7.5zm0-3h-8.5a.75.75 0 0 0-.102 1.493L8.75 6h8.5a.75.75 0 0 0 .102-1.493L17.25 4.5z"/>
</svg>
