<svg xmlns="http://www.w3.org/2000/svg" width="24" height="24" viewBox="0 0 24 24">
    <path fill="#212121" fill-rule="evenodd" d="M22 17v.436c0 .964-.1 1.477-.385 2.012-.268.5-.666.9-1.167 1.167-.49.262-.962.367-1.78.383l-.232.002H5.564c-.964 0-1.477-.1-2.012-.385a2.817 2.817 0 0 1-1.167-1.167c-.262-.49-.367-.962-.383-1.78L2 17h20zM14.436 3c.964 0 1.477.1 2.012.385.5.268.9.666 1.167 1.167.262.49.367.962.383 1.78l.002.232V7h.436c.884 0 1.389.083 1.879.318l.133.067c.5.268.9.666 1.167 1.167.262.49.367.962.383 1.78l.002.232V15.5H2v-4.936c0-.964.1-1.477.385-2.012.268-.5.666-.9 1.167-1.167.49-.262.962-.367 1.78-.383L6 7v-.436c0-.884.083-1.389.318-1.879l.067-.133c.268-.5.666-.9 1.167-1.167.49-.262.962-.367 1.78-.383L9.564 3h4.872zm.17 2.001H9.394l-.305.01c-.305.018-.449.06-.594.138a.818.818 0 0 0-.346.346c-.1.187-.141.37-.148.9L8 7h7.999v-.606l-.01-.305c-.015-.262-.049-.405-.107-.532l-.03-.062a.818.818 0 0 0-.347-.346c-.147-.079-.292-.121-.606-.139l-.293-.009z"/>
</svg>
