<svg xmlns="http://www.w3.org/2000/svg" width="24" height="24" viewBox="0 0 24 24">
    <path fill="#212121" fill-rule="evenodd" d="M17 2a1 1 0 0 1 1 1v1h.436c.964 0 1.477.1 2.012.385.5.268.9.666 1.167 1.167.262.49.367.962.383 1.78l.002.232v10.872c0 .964-.1 1.477-.385 2.012-.268.5-.666.9-1.167 1.167-.49.262-.962.367-1.78.383l-.232.002H5.564c-.964 0-1.477-.1-2.012-.385a2.817 2.817 0 0 1-1.167-1.167c-.262-.49-.367-.962-.383-1.78L2 18.436V7.564c0-.964.1-1.477.385-2.012.268-.5.666-.9 1.167-1.167.49-.262.962-.367 1.78-.383L6 4V3a1 1 0 1 1 2 0v1h8V3a1 1 0 0 1 1-1zm2.999 8H4l.001 8.606.01.305c.018.305.06.449.138.594a.818.818 0 0 0 .346.346c.187.1.37.141.9.148h13.21l.306-.01c.305-.018.449-.06.594-.138a.818.818 0 0 0 .346-.346c.1-.187.141-.37.148-.9V10zm-6.292 2.293l1.414 1.414 1.415-1.414a1 1 0 0 1 1.414 1.414l-1.414 1.414 1.414 1.415a1 1 0 0 1-1.414 1.414l-1.415-1.415-1.414 1.415a1 1 0 0 1-1.414-1.414l1.413-1.415-1.413-1.414a1 1 0 0 1 1.414-1.414z"/>
</svg>
