<svg xmlns="http://www.w3.org/2000/svg" width="24" height="24" viewBox="0 0 24 24">
    <path fill="#212121" fill-rule="evenodd" d="M11.99 2C17.46 2 22 6.54 22 12c0 5.47-4.53 10-10 10-5.46 0-10-4.53-10-10C2 6.54 6.53 2 11.99 2zM12 5a1 1 0 0 0-.993.883L11 6v1h-.9l-.183.005C8.284 7.092 7 8.34 7 9.987c0 1.648 1.286 2.92 2.917 3.008L10.1 13h.9v2H9l-.117.007a1 1 0 0 0 0 1.986l.116.007H11v1l.007.117a1 1 0 0 0 1.986 0L13 18v-1h1.1l.181-.005C15.892 16.908 17 15.657 17 14s-1.108-2.908-2.719-2.995L14.1 11H13V9h2l.117-.007a1 1 0 0 0 0-1.986L15 7h-2V6l-.007-.117A1 1 0 0 0 12 5zm2.1 8l.118.005c.498.047.782.396.782.995 0 .6-.284.948-.782.995L14.1 15H13v-2h1.1zM11 9v2h-.9l-.125-.006C9.402 10.941 9 10.526 9 9.987c0-.53.394-.93.973-.981L10.1 9h.9z"/>
</svg>
