<svg xmlns="http://www.w3.org/2000/svg" width="24" height="24" viewBox="0 0 24 24">
    <path fill="#212121" fill-rule="evenodd" d="M17.436 2c.892 0 1.215.093 1.54.267.327.174.583.43.757.756.174.326.267.65.267 1.54v16.155c0 .446-.046.607-.134.77a.909.909 0 0 1-.378.378c-.163.088-.324.134-.77.134H15v-4a3 3 0 0 0-6 0v4H5.282c-.446 0-.607-.046-.77-.134a.909.909 0 0 1-.378-.378c-.088-.163-.134-.324-.134-.77V4.564c0-.892.093-1.215.267-1.54.174-.327.43-.583.756-.757.301-.16.6-.252 1.345-.265L17.436 2zM9 8.5H6v3h3v-3zm9 0h-3v3h3v-3zm-4.5 0h-3v3h3v-3zM9 4H6v3h3V4zm9 0h-3v3h3V4zm-4.5 0h-3v3h3V4z"/>
</svg>
