<svg xmlns="http://www.w3.org/2000/svg" width="24" height="24" viewBox="0 0 24 24">
    <path fill="#212121" fill-rule="evenodd" d="M19.154 4c1.337 0 1.822.14 2.311.4.49.262.873.646 1.134 1.135l.093.185c.187.407.292.882.306 1.885l.002 8.55c0 1.336-.14 1.821-.4 2.31a2.726 2.726 0 0 1-1.135 1.134l-.185.093c-.407.187-.882.292-1.885.306L4.845 20c-1.336 0-1.821-.14-2.31-.4A2.726 2.726 0 0 1 1.4 18.464l-.093-.185C1.107 17.842 1 17.324 1 16.154V7.846c0-1.337.14-1.822.4-2.311A2.726 2.726 0 0 1 2.536 4.4l.185-.093C3.158 4.107 3.676 4 4.846 4h14.308zM9.25 16h-5a.75.75 0 0 0-.102 1.493l.102.007h5a.75.75 0 0 0 .102-1.493L9.25 16zm5.5 0l.102.007a.75.75 0 0 1-.102 1.493h-2.5l-.102-.007A.75.75 0 0 1 12.25 16h2.5zM21 8v4H3V8h18z"/>
</svg>
