<svg xmlns="http://www.w3.org/2000/svg" width="24" height="24" viewBox="0 0 24 24">
    <path fill="#212121" fill-rule="evenodd" d="M17.436 3c.964 0 1.477.1 2.012.385.5.268.9.666 1.167 1.167.262.49.367.962.383 1.78l.002.232v10.872c0 .964-.1 1.477-.385 2.012-.268.5-.666.9-1.167 1.167-.49.262-.962.367-1.78.383l-.232.002H6.564c-.964 0-1.477-.1-2.012-.385a2.817 2.817 0 0 1-1.167-1.167c-.262-.49-.367-.962-.383-1.78L3 17.436V16a1 1 0 0 1 1.993-.117L5 16l.001 1.606.01.305c.018.305.06.449.138.594a.818.818 0 0 0 .346.346c.187.1.37.141.9.148L17.435 19c.662 0 .864-.039 1.07-.149a.818.818 0 0 0 .345-.346c.1-.187.141-.37.148-.9L19 6.565c0-.662-.039-.864-.149-1.07a.818.818 0 0 0-.346-.345c-.187-.1-.37-.141-.9-.148H6.396l-.306.01c-.305.018-.449.06-.594.138a.818.818 0 0 0-.346.346c-.1.187-.141.37-.148.9L5 8a1 1 0 0 1-1.993.117L3 8V6.564c0-.964.1-1.477.385-2.012.268-.5.666-.9 1.167-1.167.49-.262.962-.367 1.78-.383L6.564 3h10.872zm-5.941 4.408c.22 0 .433.073.606.205l.099.087 3.59 3.59c.36.36.388.924.083 1.316l-.083.094-3.59 3.59a.996.996 0 0 1-1.493-1.316l.083-.094L12.67 13H4c-.55 0-1-.45-1-1 0-.51.388-.935.884-.993L4 11h8.67l-1.88-1.89a.996.996 0 0 1 .705-1.702z"/>
</svg>
