<svg xmlns="http://www.w3.org/2000/svg" width="24" height="24" viewBox="0 0 24 24">
    <path fill="#ffffff" fill-rule="evenodd" d="M12 22c5.47 0 10-4.53 10-10 0-5.46-4.54-10-10.01-10C6.53 2 2 6.54 2 12c0 5.47 4.54 10 10 10zm-4.951-5.892l2.745-5.628c.177-.333.382-.539.686-.686l5.608-2.735c.687-.334 1.167.176.853.843l-2.735 5.618c-.157.304-.373.529-.686.676l-5.628 2.755c-.647.314-1.157-.196-.843-.843zM12 13.216c.667 0 1.206-.54 1.206-1.206 0-.667-.54-1.196-1.206-1.196-.667 0-1.196.53-1.196 1.196 0 .666.53 1.206 1.196 1.206z"/>
</svg>
