<svg xmlns="http://www.w3.org/2000/svg" width="24" height="24" viewBox="0 0 24 24">
    <path fill="#212121" fill-rule="evenodd" d="M17 4a5.001 5.001 0 0 1 4.925 4.135l.038.254 1.017 8.261a3 3 0 0 1-5.352 2.187l-.112-.155L16.377 17H7.622l-1.138 1.682A3 3 0 0 1 1 17l.005-.176.017-.19 1.019-8.277A5.001 5.001 0 0 1 6.77 4.005L7 4h10zm-1.5 10h-2a.5.5 0 0 0-.09.992l.09.008h2a.5.5 0 0 0 .09-.992L15.5 14zm-5 0h-2a.5.5 0 0 0-.09.992L8.5 15h2a.5.5 0 0 0 .09-.992L10.5 14zm6.5-4c-.553 0-1 .447-1 1 0 .553.447 1 1 1 .553 0 1-.447 1-1 0-.553-.447-1-1-1zM7 6a1 1 0 0 0-.993.883L6 7l-.001 1H5a1 1 0 0 0-.117 1.993L5 10h.999L6 11a1 1 0 0 0 1.993.117L8 11l-.001-1H9a1 1 0 0 0 .117-1.993L9 8H7.999L8 7a1 1 0 0 0-1-1zm12 2c-.553 0-1 .447-1 1 0 .553.447 1 1 1 .553 0 1-.447 1-1 0-.553-.447-1-1-1zm-4 0c-.553 0-1 .447-1 1 0 .553.447 1 1 1 .553 0 1-.447 1-1 0-.553-.447-1-1-1zm2-2c-.553 0-1 .447-1 1 0 .553.447 1 1 1 .553 0 1-.447 1-1 0-.553-.447-1-1-1z"/>
</svg>
