<svg xmlns="http://www.w3.org/2000/svg" width="24" height="24" viewBox="0 0 24 24">
    <path fill="#ffffff" fill-rule="evenodd" d="M13 2a4 4 0 0 1 4 4h.509c.874 0 1.192.088 1.513.256.322.167.577.414.755.73.178.316.277.63.306 1.504l.348 10.443a2 2 0 0 1-1.783 2.055l-.216.012H5.568a2 2 0 0 1-2-2l.349-10.51c.03-.874.128-1.188.306-1.504.178-.316.433-.563.755-.73l.15-.072c.257-.11.562-.172 1.171-.182L7 6a4 4 0 0 1 4-4h2zm3.02 7.617a1 1 0 0 0-1.303.268l-.064.098L12 14.578 9.347 9.983a1 1 0 0 0-1.785.895l.053.105 3.5 6.062a1 1 0 0 0 .885.5 1 1 0 0 0 .817-.397l.068-.103 3.5-6.062a1 1 0 0 0-.366-1.366zM13 4h-2a2 2 0 0 0-2 2h6a2 2 0 0 0-1.85-1.995L13 4z"/>
</svg>
