<svg xmlns="http://www.w3.org/2000/svg" width="24" height="24" viewBox="0 0 24 24">
    <path fill="#00B900" fill-rule="evenodd" d="M16.302 2c1.982 0 2.7.206 3.424.594a4.038 4.038 0 0 1 1.68 1.68c.388.724.594 1.442.594 3.424v8.604c0 1.982-.206 2.7-.594 3.424a4.038 4.038 0 0 1-1.68 1.68c-.724.388-1.442.594-3.424.594H7.698c-1.982 0-2.7-.206-3.424-.594a4.038 4.038 0 0 1-1.68-1.68c-.367-.686-.572-1.367-.592-3.121L2 7.698c0-1.982.206-2.7.594-3.424a4.038 4.038 0 0 1 1.68-1.68c.686-.367 1.367-.572 3.121-.592L16.302 2zm-4.334 3.211c-4.015 0-7.282 2.651-7.282 5.91 0 2.92 2.59 5.367 6.09 5.83.237.05.56.156.641.359.074.184.048.472.024.658l-.104.624c-.032.184-.146.72.63.392.778-.327 4.194-2.47 5.722-4.228 1.055-1.157 1.56-2.331 1.56-3.635 0-3.259-3.266-5.91-7.281-5.91zm-4.24 4.335c.078 0 .141.063.141.142v2.52h1.388c.078 0 .142.063.142.142v.51a.142.142 0 0 1-.142.142h-2.04l-.037-.005a.143.143 0 0 1-.062-.034.145.145 0 0 1-.044-.102V9.688c0-.079.064-.142.142-.142zm9.096 0c.079 0 .142.064.142.142v.51a.142.142 0 0 1-.142.143h-1.387v.536h1.387c.079 0 .142.063.142.142v.51a.142.142 0 0 1-.142.142h-1.387v.537h1.387c.079 0 .142.063.142.142v.51a.142.142 0 0 1-.142.142h-2.04a.143.143 0 0 1-.142-.142V9.688l.005-.037a.144.144 0 0 1 .137-.105zm-6.336 0c.078 0 .142.063.142.142v3.172a.142.142 0 0 1-.142.142h-.51a.142.142 0 0 1-.143-.142V9.688c0-.079.064-.142.142-.142zm1.291 0h.005l.015.002h.006l.013.003.008.003.003.001.01.004.012.007.004.002.004.003a.058.058 0 0 1 .007.005l.008.006a.344.344 0 0 1 .023.027l1.454 1.964V9.688c0-.079.064-.142.142-.142h.51c.08 0 .143.063.143.142v3.172a.142.142 0 0 1-.142.142h-.51a.135.135 0 0 1-.037-.005h-.002a.324.324 0 0 1-.01-.003l-.011-.005-.01-.005a.155.155 0 0 1-.011-.007.143.143 0 0 1-.036-.035l-1.456-1.966v1.884a.142.142 0 0 1-.142.142h-.51a.142.142 0 0 1-.143-.142V9.688c0-.079.064-.142.142-.142z"/>
</svg>
