<svg xmlns="http://www.w3.org/2000/svg" width="24" height="24" viewBox="0 0 24 24">
    <path fill="#212121" fill-rule="evenodd" d="M12 2c5.634 0 10 4.127 10 9.7 0 5.574-4.366 9.7-10 9.7-1.012 0-1.984-.132-2.895-.384a.798.798 0 0 0-.533.04l-1.985.876a.802.802 0 0 1-1.122-.71l-.055-1.777a.805.805 0 0 0-.27-.57C3.196 17.135 2 14.615 2 11.7 2 6.127 6.366 2 12 2zm6.004 7.465c.283-.446-.268-.951-.689-.632l-3.154 2.394a.6.6 0 0 1-.723.002l-2.336-1.752a1.502 1.502 0 0 0-2.168.4l-2.938 4.66c-.283.447.268.952.689.632l3.154-2.394a.6.6 0 0 1 .723-.002l2.336 1.752c.7.525 1.702.34 2.168-.4l2.938-4.66z"/>
</svg>
