<svg xmlns="http://www.w3.org/2000/svg" width="72" height="24" viewBox="0 0 72 24">
    <path fill="#212121" fill-rule="evenodd" d="M68.836 2C69.48 2 70 2.519 70 3.16v17.68c0 .64-.521 1.16-1.164 1.16H39.164C38.52 22 38 21.48 38 20.84V3.16c0-.641.521-1.16 1.164-1.16h29.672zM60.26 9.33H58.6l-.047.006a.162.162 0 0 0-.115.161l.013.055 2.582 6.295-.941 2.371-.011.046a.162.162 0 0 0 .106.165l.055.01h1.66l.065-.008a.27.27 0 0 0 .154-.105l.031-.057 3.461-8.719.011-.045a.162.162 0 0 0-.106-.166l-.055-.01h-1.66l-.065.008a.269.269 0 0 0-.154.105l-.031.057-1.497 3.77-1.548-3.773-.031-.056a.269.269 0 0 0-.217-.11zM12.959 6.274c.224 0 .41.161.45.374l.006.082V16.96c0 .224-.161.41-.374.449l-.082.007h-1.644a.457.457 0 0 1-.45-.374l-.007-.082V6.73c0-.224.162-.41.375-.449l.082-.007h1.644zm-8.858 0c.224 0 .41.161.449.374l.007.082v8.128h4.43c.223 0 .41.162.449.375l.007.082v1.644c0 .224-.162.41-.375.449l-.082.007h-6.53a.457.457 0 0 1-.449-.374L2 16.959V6.73c0-.224.162-.41.374-.449l.083-.007H4.1zm29.315 0c.224 0 .41.161.449.374l.007.082v1.644c0 .224-.161.41-.374.45l-.082.007h-4.43v1.735h4.43c.224 0 .41.161.449.374l.007.082v1.644c0 .224-.161.41-.374.45l-.082.007h-4.43v1.735h4.43c.224 0 .41.162.449.375l.007.082v1.644c0 .224-.161.41-.374.449l-.082.007h-6.53a.457.457 0 0 1-.45-.374l-.007-.082V6.73c0-.224.162-.41.375-.449l.082-.007h6.53zm-17.809 0l1.684-.002.038.002c.169 0 .323.034.44.147l.066.077 4.302 6.15V6.73c0-.224.162-.41.375-.449l.082-.007h1.644c.224 0 .41.161.449.374l.007.082V16.96c0 .224-.161.41-.374.449l-.082.007h-1.676a.458.458 0 0 1-.316-.161l-.028-.03-.025-.034-4.485-6.413v6.182c0 .224-.162.41-.375.449l-.082.007h-1.644a.457.457 0 0 1-.449-.374l-.007-.082V6.73c0-.224.161-.41.374-.449l.082-.007zm37.567 2.873c-1.704 0-3.108 1.496-3.108 3.433 0 1.938 1.404 3.433 3.108 3.433.799 0 1.4-.251 1.826-.674l.112-.119v.45c0 .071.046.132.11.153l.05.008h1.629a.161.161 0 0 0 .153-.11l.008-.051V9.49a.161.161 0 0 0-.11-.152l-.051-.009h-1.628a.161.161 0 0 0-.153.11l-.008.052v.45c-.43-.495-1.067-.794-1.938-.794zM46.151 6.73h-3.14c-.145 0-.266.1-.298.236l-.008.07v8.49c0 .145.1.266.236.298l.07.008h1.468c.145 0 .266-.1.298-.236l.008-.07V12.97h1.366c1.794 0 3.186-1.391 3.186-3.12 0-1.73-1.392-3.121-3.186-3.121zm7.413 4.265c.897 0 1.548.611 1.548 1.586 0 .976-.65 1.587-1.548 1.587-.897 0-1.547-.611-1.547-1.587 0-.975.65-1.586 1.547-1.586zm-7.413-2.315c.637 0 1.105.507 1.105 1.17 0 .62-.408 1.103-.98 1.164l-.125.007h-1.366V8.68h1.366z"/>
</svg>
