<svg xmlns="http://www.w3.org/2000/svg" width="24" height="24" viewBox="0 0 24 24">
    <path fill="#212121" fill-rule="evenodd" d="M16.302 2c1.982 0 2.7.206 3.424.594a4.038 4.038 0 0 1 1.68 1.68c.388.724.594 1.442.594 3.424v8.604c0 1.982-.206 2.7-.594 3.424a4.038 4.038 0 0 1-1.68 1.68c-.724.388-1.442.594-3.424.594H7.698c-1.982 0-2.7-.206-3.424-.594a4.038 4.038 0 0 1-1.68-1.68c-.367-.686-.572-1.367-.592-3.121L2 7.698c0-1.982.206-2.7.594-3.424a4.038 4.038 0 0 1 1.68-1.68c.686-.367 1.367-.572 3.121-.592L16.302 2zm-4.334 3.211c-4.015 0-7.282 2.651-7.282 5.91 0 2.92 2.59 5.367 6.09 5.83.237.05.56.156.641.359.074.184.048.472.024.658l-.104.624c-.032.184-.146.72.63.392.778-.327 4.194-2.47 5.722-4.228 1.055-1.157 1.56-2.331 1.56-3.635 0-3.259-3.266-5.91-7.281-5.91z"/>
</svg>
