<svg xmlns="http://www.w3.org/2000/svg" width="24" height="24" viewBox="0 0 24 24">
    <path fill="#212121" fill-rule="evenodd" d="M12 2c2.578 0 4.761.907 6.462 2.398l.229.207-2.868 2.868C14.786 6.482 13.468 5.977 12 5.977c-2.52 0-4.666 1.648-5.515 3.896l-.08.227c-.2.6-.314 1.24-.314 1.9 0 .55.079 1.086.22 1.597l.094.303c.786 2.364 2.99 4.123 5.595 4.123 1.242 0 2.314-.302 3.175-.82l.211-.135.207-.146a4.584 4.584 0 0 0 1.736-2.625l.053-.247H12v-3.868h9.418c.118.654.182 1.336.182 2.045 0 3.046-1.09 5.61-2.982 7.35C16.964 21.105 14.7 22 12 22a9.994 9.994 0 0 1-8.8-5.246l-.136-.263-.151-.315A9.993 9.993 0 0 1 2 12c0-1.49.33-2.905.913-4.176l.15-.315.138-.263A9.994 9.994 0 0 1 12 2z"/>
</svg>
