<svg xmlns="http://www.w3.org/2000/svg" width="24" height="24" viewBox="0 0 24 24">
    <path fill="#212121" fill-rule="evenodd" d="M14.001 19.75a2 2 0 1 1-3.995.149l-.005-.149h4zM4.93 3.515L20.485 19.07a1 1 0 0 1-1.414 1.414l-1.735-1.735H5.41c-.851 0-1.29-.988-.776-1.625l.076-.085 1.29-1.29v-5c0-1.012.176-1.968.514-2.82l-3-3.001a1 1 0 1 1 1.414-1.414zM12 2.25c.781 0 1.42.593 1.493 1.355l.007.145v.68c2.776.66 4.403 3.1 4.496 6.05l.004.27v3.008L9.165 4.923c.338-.175.7-.32 1.086-.428l.25-.065v-.68c0-.83.67-1.5 1.5-1.5z"/>
</svg>
