<svg xmlns="http://www.w3.org/2000/svg" width="24" height="24" viewBox="0 0 24 24">
    <path fill="#ffffff" fill-rule="evenodd" d="M6.823 13.002h4.354c1.574.019 2.396.195 3.248.65a4.634 4.634 0 0 1 1.923 1.923c.455.852.631 1.674.65 3.248l.002.305V20a1 1 0 0 1-.883.993L16 21H2a1 1 0 0 1-.993-.883L1 20l.002-1.177c.019-1.574.195-2.396.65-3.248a4.634 4.634 0 0 1 1.923-1.923c.852-.455 1.674-.631 3.248-.65zM19 19.128l-.002-.316-.007-.34c-.046-1.661-.286-2.73-.88-3.84A6.669 6.669 0 0 0 16.89 13l.288.002c1.574.019 2.396.195 3.248.65a4.634 4.634 0 0 1 1.923 1.923c.455.852.631 1.674.65 3.248l.002.305V20a1 1 0 0 1-.883.993L22 21h-3v-1.872zM15 3a4 4 0 1 1-1.335 7.772A5.966 5.966 0 0 0 15 7c0-1.43-.5-2.742-1.334-3.772A3.989 3.989 0 0 1 15 3zM9 3a4 4 0 1 1 0 8 4 4 0 0 1 0-8z"/>
</svg>
