<svg xmlns="http://www.w3.org/2000/svg" width="24" height="24" viewBox="0 0 24 24">
    <path fill="#212121" fill-rule="evenodd" d="M16.007 3l.117.008a1 1 0 0 1 .876 1l-.008.116L16.508 8H20a1 1 0 0 1 .117 1.993L20 10h-3.742l-.5 4H20a1 1 0 0 1 .117 1.993L20 16h-4.492l-.516 4.124A1 1 0 0 1 13 19.993l.008-.117.484-3.876H9.508l-.516 4.124A1 1 0 0 1 7 19.993l.008-.117L7.492 16H4a1 1 0 0 1-.117-1.993L4 14h3.742l.5-4H4a1 1 0 0 1-.117-1.993L4 8h4.492l.516-4.124a1 1 0 0 1 1-.876l.116.008a1 1 0 0 1 .876 1l-.008.116L10.508 8h3.984l.516-4.124a1 1 0 0 1 1-.876zm-1.765 7h-3.984l-.5 4h3.984l.5-4z"/>
</svg>
