<svg xmlns="http://www.w3.org/2000/svg" width="24" height="24" viewBox="0 0 24 24">
    <path fill="#212121" fill-rule="evenodd" d="M17 8.75a6 6 0 1 1-3.383 10.956c.061-.097.118-.195.171-.295.522-.975.712-1.935.712-3.68V9.295A5.978 5.978 0 0 1 17 8.75zm-5.282-1c.446 0 .607.046.77.134.163.087.291.215.378.378.088.163.134.324.134.77v6.7c0 1.651-.186 2.32-.534 2.972a3.635 3.635 0 0 1-1.512 1.512c-.614.328-1.242.512-2.69.532l-2.246.002c-1.651 0-2.32-.186-2.972-.534a3.635 3.635 0 0 1-1.512-1.512C1.186 18.052 1 17.384 1 15.732v-6.7c0-.446.046-.607.134-.77a.909.909 0 0 1 .378-.378c.163-.088.324-.134.77-.134h9.436zm5.282 8a1 1 0 1 0 0 2 1 1 0 0 0 0-2zm2.5 0a.5.5 0 1 0 0 1 .5.5 0 0 0 0-1zm-.5-4a1 1 0 1 0 0 2 1 1 0 0 0 0-2zm-2.5 1a.5.5 0 1 0 0 1 .5.5 0 0 0 0-1zM7.5 1a.75.75 0 0 1 0 1.5c-.868 0-1.211.295-1.247 1.102l-.007.34C6.175 5.57 5.183 6.5 3.5 6.5a.75.75 0 0 1 0-1.5c.868 0 1.211-.295 1.247-1.102l.007-.34C4.825 1.93 5.817 1 7.5 1zm5 0a.75.75 0 1 1 0 1.5c-.868 0-1.211.295-1.247 1.102l-.007.34C11.175 5.57 10.183 6.5 8.5 6.5a.75.75 0 0 1 0-1.5c.868 0 1.211-.295 1.247-1.102l.007-.34C9.825 1.93 10.817 1 12.5 1z"/>
</svg>
