<svg xmlns="http://www.w3.org/2000/svg" width="24" height="24" viewBox="0 0 24 24">
    <path fill="#212121" fill-rule="evenodd" d="M19 12.388a4.507 4.507 0 0 0 2 0V19a1 1 0 0 1-.049.31c-.045.294-.118.48-.218.667-.174.326-.43.582-.756.756-.326.174-.65.267-1.54.267H5.563c-.892 0-1.215-.093-1.54-.267a1.817 1.817 0 0 1-.757-.756 1.906 1.906 0 0 1-.217-.666A.986.986 0 0 1 3 19l-.001-6.612c.322.073.657.112 1.001.112l.221-.005a4.5 4.5 0 0 0 .778-.107L5 17h13.999v-4.612zM18 3c.43 0 .83.136 1.155.367l.136.106 2.646 2.236a3 3 0 1 1-4.604 3.665 3 3 0 0 1-5.333 0 3 3 0 0 1-5.333 0A3 3 0 1 1 1.918 5.84l.144-.131L4.71 3.473a1.991 1.991 0 0 1 1.109-.465L6 3h12z"/>
</svg>
