<svg xmlns="http://www.w3.org/2000/svg" width="24" height="24" viewBox="0 0 24 24">
    <path fill="#212121" fill-rule="evenodd" d="M11.207 19.707l4.608-4.617c.309-.308.484-.733.484-1.175V5.59c0-.917-.75-1.667-1.667-1.667H7.14c-.666 0-1.266.4-1.525 1.009L2.9 11.273c-.709 1.65.5 3.484 2.291 3.484H9.9l-.792 3.816c-.083.417.042.842.342 1.142a1.24 1.24 0 0 0 1.758-.008zM19.64 3.923c-.916 0-1.666.75-1.666 1.667v6.667c0 .916.75 1.666 1.666 1.666.917 0 1.667-.75 1.667-1.666V5.59c0-.917-.75-1.667-1.667-1.667z"/>
</svg>
