<svg xmlns="http://www.w3.org/2000/svg" width="24" height="24" viewBox="0 0 24 24">
    <path fill="#212121" fill-rule="evenodd" d="M12.79 4.293L8.175 8.91a1.665 1.665 0 0 0-.483 1.175v8.325c0 .917.75 1.667 1.667 1.667h7.5c.666 0 1.266-.4 1.533-1.009l2.717-6.341c.7-1.65-.509-3.484-2.3-3.484h-4.709l.792-3.816a1.257 1.257 0 0 0-.342-1.142 1.24 1.24 0 0 0-1.758.008zM4.359 20.077c.916 0 1.666-.75 1.666-1.667v-6.667c0-.916-.75-1.666-1.666-1.666-.917 0-1.667.75-1.667 1.666v6.667c0 .917.75 1.667 1.667 1.667z"/>
</svg>
