<svg xmlns="http://www.w3.org/2000/svg" width="24" height="24" viewBox="0 0 24 24">
    <path fill="#212121" fill-rule="evenodd" d="M4.835 3.432l.094.083L20.485 19.07a1 1 0 0 1-1.414 1.414l-2.028-2.028c-1.621.66-3.387 1.043-5.043 1.043C7 19.5 1 16 1 12c0-2.135 1.71-4.127 4.063-5.521l-1.548-1.55a1 1 0 0 1 1.218-1.567l.102.07zm2.994 5.811a5.002 5.002 0 0 0 6.929 6.927l-1.464-1.461c-.392.186-.83.291-1.294.291-1.66 0-3-1.34-3-3 0-.464.105-.903.292-1.294L7.829 9.243zM12 4.5c5 0 11 3.5 11 7.5 0 1.592-.95 3.104-2.41 4.349l-3.64-3.643a5.002 5.002 0 0 0-5.657-5.657L9.099 4.857C10.07 4.626 11.053 4.5 12 4.5z"/>
</svg>
